<svg viewBox="0 0 200 166" fill="none" xmlns="http://www.w3.org/2000/svg">
  <path
    d="M139.456 165.49C139.01 165.49 138.571 165.374 138.183 165.153L64.6094 123.557C64.0114 123.218 63.5722 122.656 63.3883 121.994C63.2044 121.331 63.2907 120.623 63.6284 120.024L121.577 17.5258C121.745 17.2293 121.969 16.9687 122.237 16.759C122.505 16.5492 122.812 16.3943 123.141 16.3032C123.469 16.2121 123.812 16.1866 124.15 16.228C124.488 16.2695 124.814 16.3771 125.11 16.5448L198.684 58.1407C199.282 58.4797 199.721 59.0421 199.905 59.7044C200.089 60.3668 200.003 61.0751 199.666 61.674L141.717 164.172C141.55 164.469 141.326 164.73 141.057 164.94C140.789 165.15 140.482 165.304 140.153 165.395C139.926 165.458 139.691 165.49 139.456 165.49Z"
    fill="#E6E6E6" />
  <path d="M119.525 21.5415L119.229 22.0645L196.987 66.0256L197.282 65.5026L119.525 21.5415Z" fill="white" />
  <path d="M114.203 30.9546L113.908 31.4775L191.665 75.4387L191.961 74.9157L114.203 30.9546Z" fill="white" />
  <path d="M108.881 40.3679L108.586 40.8909L186.343 84.852L186.639 84.3291L108.881 40.3679Z" fill="white" />
  <path d="M103.56 49.7808L103.264 50.3037L181.021 94.2649L181.317 93.7419L103.56 49.7808Z" fill="white" />
  <path d="M98.2378 59.1939L97.9421 59.7168L175.699 103.678L175.995 103.155L98.2378 59.1939Z" fill="white" />
  <path d="M92.916 68.6072L92.6203 69.1301L170.378 113.091L170.673 112.568L92.916 68.6072Z" fill="white" />
  <path d="M87.5942 78.02L87.2985 78.543L165.056 122.504L165.351 121.981L87.5942 78.02Z" fill="white" />
  <path d="M82.2723 87.4331L81.9767 87.9561L159.734 131.917L160.03 131.394L82.2723 87.4331Z" fill="white" />
  <path d="M76.9506 96.8464L76.6549 97.3694L154.412 141.331L154.708 140.808L76.9506 96.8464Z" fill="white" />
  <path d="M71.6287 106.259L71.3331 106.782L149.09 150.743L149.386 150.22L71.6287 106.259Z" fill="white" />
  <path d="M66.3069 115.672L66.0112 116.195L143.769 160.156L144.064 159.633L66.3069 115.672Z" fill="white" />
  <path
    d="M132.612 149.901C132.165 149.9 131.727 149.784 131.339 149.564L57.7652 107.968C57.1671 107.629 56.728 107.066 56.5441 106.404C56.3602 105.742 56.4465 105.033 56.7841 104.434L114.733 1.9362C114.9 1.63972 115.125 1.37914 115.393 1.16937C115.661 0.959599 115.968 0.804735 116.296 0.713631C116.624 0.622526 116.967 0.596966 117.305 0.638409C117.643 0.679851 117.97 0.787488 118.266 0.955164L191.84 42.5511C192.438 42.8901 192.877 43.4525 193.061 44.1148C193.245 44.7772 193.159 45.4855 192.821 46.0844L134.872 148.582C134.706 148.879 134.481 149.141 134.213 149.35C133.945 149.56 133.637 149.715 133.309 149.805C133.082 149.868 132.847 149.9 132.612 149.901Z"
    fill="#F2F2F2" />
  <path d="M112.681 5.95191L112.385 6.47485L190.142 50.436L190.438 49.9131L112.681 5.95191Z" fill="white" />
  <path d="M107.359 15.365L107.063 15.8879L184.821 59.8491L185.116 59.3261L107.359 15.365Z" fill="white" />
  <path d="M102.037 24.7783L101.742 25.3013L179.499 69.2624L179.795 68.7395L102.037 24.7783Z" fill="white" />
  <path d="M96.7154 34.1912L96.4197 34.7141L174.177 78.6752L174.473 78.1523L96.7154 34.1912Z" fill="white" />
  <path d="M91.3936 43.6043L91.098 44.1272L168.855 88.0883L169.151 87.5654L91.3936 43.6043Z" fill="white" />
  <path d="M86.0718 53.0176L85.7761 53.5405L163.533 97.5016L163.829 96.9787L86.0718 53.0176Z" fill="white" />
  <path d="M80.7499 62.4304L80.4543 62.9534L158.212 106.914L158.507 106.392L80.7499 62.4304Z" fill="white" />
  <path d="M75.4281 71.8435L75.1324 72.3665L152.89 116.328L153.185 115.805L75.4281 71.8435Z" fill="white" />
  <path d="M70.1063 81.2568L69.8107 81.7798L147.568 125.741L147.864 125.218L70.1063 81.2568Z" fill="white" />
  <path d="M64.7845 90.6697L64.4888 91.1926L142.246 135.154L142.542 134.631L64.7845 90.6697Z" fill="white" />
  <path d="M59.4627 100.083L59.1671 100.606L136.924 144.567L137.22 144.044L59.4627 100.083Z" fill="white" />
  <path
    d="M125.28 0H7.69727V163.501H125.28C125.702 163.501 126.107 163.333 126.406 163.034C126.704 162.736 126.872 162.331 126.872 161.908V1.59254C126.872 1.17017 126.704 0.765113 126.406 0.466456C126.107 0.1678 125.702 9.07561e-06 125.28 0ZM14.3328 158.989C13.7554 158.989 13.1909 158.817 12.7108 158.496C12.2306 158.176 11.8564 157.72 11.6354 157.186C11.4144 156.653 11.3566 156.066 11.4693 155.499C11.5819 154.933 11.86 154.413 12.2683 154.004C12.6766 153.596 13.1969 153.318 13.7632 153.205C14.3296 153.093 14.9166 153.15 15.4501 153.371C15.9836 153.592 16.4396 153.967 16.7604 154.447C17.0813 154.927 17.2525 155.491 17.2525 156.069C17.2525 156.452 17.177 156.832 17.0303 157.186C16.8835 157.54 16.6685 157.862 16.3974 158.133C16.1262 158.404 15.8044 158.62 15.4501 158.766C15.0959 158.913 14.7163 158.989 14.3328 158.989ZM14.3328 144.125C13.7554 144.125 13.1909 143.954 12.7108 143.633C12.2306 143.312 11.8564 142.856 11.6354 142.322C11.4144 141.789 11.3566 141.202 11.4693 140.636C11.5819 140.069 11.86 139.549 12.2683 139.141C12.6767 138.732 13.1969 138.454 13.7632 138.342C14.3296 138.229 14.9166 138.287 15.4501 138.508C15.9836 138.729 16.4396 139.103 16.7604 139.583C17.0813 140.063 17.2525 140.628 17.2525 141.205C17.2525 141.589 17.177 141.968 17.0303 142.322C16.8835 142.677 16.6685 142.999 16.3974 143.27C16.1262 143.541 15.8044 143.756 15.4501 143.903C15.0959 144.049 14.7163 144.125 14.3328 144.125ZM14.3328 129.261C13.7554 129.261 13.1909 129.09 12.7108 128.769C12.2306 128.448 11.8564 127.992 11.6354 127.459C11.4144 126.925 11.3566 126.338 11.4693 125.772C11.5819 125.206 11.86 124.685 12.2683 124.277C12.6767 123.869 13.1969 123.591 13.7632 123.478C14.3296 123.365 14.9166 123.423 15.4501 123.644C15.9836 123.865 16.4396 124.239 16.7604 124.719C17.0813 125.2 17.2525 125.764 17.2525 126.341C17.2525 126.725 17.177 127.105 17.0303 127.459C16.8835 127.813 16.6685 128.135 16.3974 128.406C16.1262 128.677 15.8044 128.892 15.4501 129.039C15.0959 129.186 14.7163 129.261 14.3328 129.261ZM14.3328 114.397C13.7554 114.397 13.1909 114.226 12.7108 113.905C12.2306 113.585 11.8564 113.129 11.6354 112.595C11.4144 112.062 11.3566 111.475 11.4693 110.908C11.5819 110.342 11.86 109.822 12.2683 109.413C12.6767 109.005 13.1969 108.727 13.7632 108.614C14.3296 108.502 14.9166 108.559 15.4501 108.78C15.9836 109.001 16.4396 109.376 16.7604 109.856C17.0813 110.336 17.2525 110.9 17.2525 111.478C17.2525 111.861 17.177 112.241 17.0303 112.595C16.8835 112.949 16.6685 113.271 16.3974 113.542C16.1262 113.813 15.8044 114.028 15.4501 114.175C15.0959 114.322 14.7163 114.397 14.3328 114.397ZM14.3328 99.5337C13.7554 99.5337 13.1909 99.3625 12.7108 99.0417C12.2306 98.7208 11.8564 98.2649 11.6354 97.7314C11.4144 97.1979 11.3566 96.6108 11.4693 96.0445C11.5819 95.4781 11.86 94.9579 12.2683 94.5496C12.6767 94.1412 13.1969 93.8632 13.7632 93.7505C14.3296 93.6378 14.9166 93.6957 15.4501 93.9167C15.9836 94.1376 16.4396 94.5118 16.7604 94.992C17.0813 95.4721 17.2525 96.0366 17.2525 96.6141C17.2525 96.9975 17.177 97.3771 17.0303 97.7314C16.8835 98.0856 16.6685 98.4075 16.3974 98.6786C16.1262 98.9497 15.8044 99.1647 15.4501 99.3115C15.0959 99.4582 14.7163 99.5337 14.3328 99.5337ZM14.3328 84.67C13.7554 84.67 13.1909 84.4988 12.7108 84.178C12.2306 83.8571 11.8564 83.4012 11.6354 82.8677C11.4144 82.3342 11.3566 81.7471 11.4693 81.1808C11.5819 80.6144 11.86 80.0942 12.2683 79.6859C12.6767 79.2775 13.1969 78.9995 13.7632 78.8868C14.3296 78.7741 14.9166 78.832 15.4501 79.053C15.9836 79.2739 16.4396 79.6481 16.7604 80.1283C17.0813 80.6084 17.2525 81.1729 17.2525 81.7504C17.2525 82.1338 17.177 82.5134 17.0303 82.8677C16.8835 83.2219 16.6685 83.5438 16.3974 83.8149C16.1262 84.086 15.8044 84.301 15.4501 84.4478C15.0959 84.5945 14.7163 84.67 14.3328 84.67ZM14.3328 69.8063C13.7554 69.8063 13.1909 69.6351 12.7108 69.3143C12.2306 68.9934 11.8564 68.5375 11.6354 68.004C11.4144 67.4705 11.3566 66.8834 11.4693 66.3171C11.5819 65.7507 11.86 65.2305 12.2683 64.8221C12.6767 64.4138 13.1969 64.1358 13.7632 64.0231C14.3296 63.9104 14.9166 63.9683 15.4501 64.1893C15.9836 64.4102 16.4396 64.7844 16.7604 65.2646C17.0813 65.7447 17.2525 66.3092 17.2525 66.8867C17.2525 67.2701 17.177 67.6497 17.0303 68.004C16.8835 68.3582 16.6685 68.6801 16.3974 68.9512C16.1262 69.2223 15.8044 69.4373 15.4501 69.5841C15.0959 69.7308 14.7163 69.8063 14.3328 69.8063ZM14.3328 54.9426C13.7554 54.9426 13.1909 54.7714 12.7108 54.4506C12.2306 54.1297 11.8564 53.6738 11.6354 53.1403C11.4144 52.6068 11.3566 52.0197 11.4693 51.4534C11.5819 50.887 11.86 50.3668 12.2683 49.9584C12.6767 49.5501 13.1969 49.2721 13.7632 49.1594C14.3296 49.0467 14.9166 49.1046 15.4501 49.3256C15.9836 49.5465 16.4396 49.9208 16.7604 50.4009C17.0813 50.881 17.2525 51.4455 17.2525 52.023C17.2525 52.4064 17.177 52.786 17.0303 53.1403C16.8835 53.4945 16.6685 53.8164 16.3974 54.0875C16.1262 54.3586 15.8044 54.5736 15.4501 54.7204C15.0959 54.8671 14.7163 54.9426 14.3328 54.9426ZM14.3328 40.0789C13.7554 40.0789 13.1909 39.9077 12.7108 39.5869C12.2306 39.266 11.8564 38.8101 11.6354 38.2766C11.4144 37.7431 11.3566 37.156 11.4693 36.5897C11.5819 36.0233 11.86 35.5031 12.2683 35.0947C12.6767 34.6864 13.1969 34.4084 13.7632 34.2957C14.3296 34.183 14.9166 34.2409 15.4501 34.4618C15.9836 34.6828 16.4396 35.057 16.7604 35.5372C17.0813 36.0173 17.2525 36.5818 17.2525 37.1592C17.2525 37.5427 17.177 37.9223 17.0303 38.2766C16.8835 38.6308 16.6685 38.9527 16.3974 39.2238C16.1262 39.4949 15.8044 39.7099 15.4501 39.8567C15.0959 40.0034 14.7163 40.0789 14.3328 40.0789ZM14.3328 25.2152C13.7554 25.2152 13.1909 25.044 12.7108 24.7232C12.2306 24.4023 11.8564 23.9464 11.6354 23.4129C11.4144 22.8794 11.3566 22.2923 11.4693 21.726C11.5819 21.1596 11.86 20.6394 12.2683 20.231C12.6766 19.8227 13.1969 19.5446 13.7632 19.432C14.3296 19.3193 14.9166 19.3772 15.4501 19.5981C15.9836 19.8191 16.4396 20.1933 16.7604 20.6735C17.0813 21.1536 17.2525 21.7181 17.2525 22.2955C17.2525 22.679 17.177 23.0586 17.0303 23.4129C16.8835 23.7671 16.6685 24.0889 16.3974 24.3601C16.1262 24.6312 15.8044 24.8462 15.4501 24.993C15.0959 25.1397 14.7163 25.2152 14.3328 25.2152ZM14.3328 10.3515C13.7554 10.3515 13.1909 10.1803 12.7108 9.85946C12.2306 9.53864 11.8564 9.08266 11.6354 8.54916C11.4144 8.01566 11.3566 7.42861 11.4693 6.86225C11.5819 6.2959 11.86 5.77567 12.2683 5.36734C12.6766 4.95902 13.1969 4.68095 13.7632 4.56829C14.3296 4.45564 14.9166 4.51345 15.4501 4.73444C15.9836 4.95542 16.4396 5.32964 16.7604 5.80978C17.0813 6.28991 17.2525 6.8544 17.2525 7.43185C17.2525 7.81527 17.177 8.19492 17.0303 8.54915C16.8835 8.90338 16.6685 9.22525 16.3974 9.49636C16.1262 9.76748 15.8044 9.98254 15.4501 10.1293C15.0959 10.276 14.7163 10.3515 14.3328 10.3515Z"
    fill="#255069" />
  <path
    d="M7.69727 9.02435C6.90943 9.02435 0 8.98715 0 7.69724C0 6.40732 6.90943 6.37012 7.69727 6.37012V6.90096C3.6277 6.90096 0.988919 7.35651 0.563958 7.69724C0.988919 8.03796 3.6277 8.4935 7.69727 8.4935C11.7578 8.4935 14.3938 8.03988 14.8277 7.69957C14.6212 7.55377 13.7778 7.24818 11.5156 7.05261L11.5613 6.52383C15.3945 6.85509 15.3945 7.46694 15.3945 7.69724C15.3945 8.98715 8.48512 9.02435 7.69727 9.02435Z"
    fill="#E15C3B" />
  <path
    d="M7.69727 23.6227C6.90943 23.6227 0 23.5855 0 22.2956C0 21.0057 6.90943 20.9685 7.69727 20.9685V21.4994C3.6277 21.4994 0.988919 21.9549 0.563958 22.2956C0.988919 22.6364 3.6277 23.0919 7.69727 23.0919C11.7578 23.0919 14.3938 22.6383 14.8277 22.298C14.6212 22.1522 13.7778 21.8466 11.5156 21.651L11.5613 21.1222C15.3945 21.4535 15.3945 22.0653 15.3945 22.2956C15.3945 23.5855 8.48512 23.6227 7.69727 23.6227Z"
    fill="#E15C3B" />
  <path
    d="M7.69727 38.4863C6.90943 38.4863 0 38.4491 0 37.1591C0 35.8692 6.90943 35.832 7.69727 35.832V36.3629C3.6277 36.3629 0.988919 36.8184 0.563958 37.1591C0.988919 37.4999 3.6277 37.9554 7.69727 37.9554C11.7578 37.9554 14.3938 37.5018 14.8277 37.1615C14.6212 37.0157 13.7778 36.7101 11.5156 36.5145L11.5613 35.9857C15.3945 36.317 15.3945 36.9289 15.3945 37.1591C15.3945 38.4491 8.48512 38.4863 7.69727 38.4863Z"
    fill="#E15C3B" />
  <path
    d="M7.69727 53.35C6.90943 53.35 0 53.3128 0 52.0229C0 50.733 6.90943 50.6958 7.69727 50.6958V51.2267C3.6277 51.2267 0.988919 51.6822 0.563958 52.0229C0.988919 52.3636 3.6277 52.8192 7.69727 52.8192C11.7578 52.8192 14.3938 52.3656 14.8277 52.0253C14.6212 51.8795 13.7778 51.5739 11.5156 51.3783L11.5613 50.8495C15.3945 51.1808 15.3945 51.7926 15.3945 52.0229C15.3945 53.3128 8.48512 53.35 7.69727 53.35Z"
    fill="#E15C3B" />
  <path
    d="M7.69727 68.2138C6.90943 68.2138 0 68.1766 0 66.8867C0 65.5968 6.90943 65.5596 7.69727 65.5596V66.0904C3.6277 66.0904 0.988919 66.546 0.563958 66.8867C0.988919 67.2274 3.6277 67.683 7.69727 67.683C11.7578 67.683 14.3938 67.2293 14.8277 66.889C14.6212 66.7432 13.7778 66.4376 11.5156 66.2421L11.5613 65.7133C15.3945 66.0445 15.3945 66.6564 15.3945 66.8867C15.3945 68.1766 8.48512 68.2138 7.69727 68.2138Z"
    fill="#E15C3B" />
  <path
    d="M7.69727 83.0776C6.90943 83.0776 0 83.0404 0 81.7505C0 80.4605 6.90943 80.4233 7.69727 80.4233V80.9542C3.6277 80.9542 0.988919 81.4097 0.563958 81.7505C0.988919 82.0912 3.6277 82.5467 7.69727 82.5467C11.7578 82.5467 14.3938 82.0931 14.8277 81.7528C14.6212 81.607 13.7778 81.3014 11.5156 81.1058L11.5613 80.577C15.3945 80.9083 15.3945 81.5202 15.3945 81.7505C15.3945 83.0404 8.48512 83.0776 7.69727 83.0776Z"
    fill="#E15C3B" />
  <path
    d="M7.69727 97.9411C6.90943 97.9411 0 97.9039 0 96.614C0 95.3241 6.90943 95.2869 7.69727 95.2869V95.8177C3.6277 95.8177 0.988919 96.2733 0.563958 96.614C0.988919 96.9547 3.6277 97.4103 7.69727 97.4103C11.7578 97.4103 14.3938 96.9566 14.8277 96.6163C14.6212 96.4705 13.7778 96.1649 11.5156 95.9694L11.5613 95.4406C15.3945 95.7718 15.3945 96.3837 15.3945 96.614C15.3945 97.9039 8.48512 97.9411 7.69727 97.9411Z"
    fill="#E15C3B" />
  <path
    d="M7.69727 112.805C6.90943 112.805 0 112.768 0 111.478C0 110.188 6.90943 110.151 7.69727 110.151V110.681C3.6277 110.681 0.988919 111.137 0.563958 111.478C0.988919 111.818 3.6277 112.274 7.69727 112.274C11.7578 112.274 14.3938 111.82 14.8277 111.48C14.6212 111.334 13.7778 111.029 11.5156 110.833L11.5613 110.304C15.3945 110.636 15.3945 111.247 15.3945 111.478C15.3945 112.768 8.48512 112.805 7.69727 112.805Z"
    fill="#E15C3B" />
  <path
    d="M7.69727 127.668C6.90943 127.668 0 127.631 0 126.341C0 125.051 6.90943 125.014 7.69727 125.014V125.545C3.6277 125.545 0.988919 126.001 0.563958 126.341C0.988919 126.682 3.6277 127.138 7.69727 127.138C11.7578 127.138 14.3938 126.684 14.8277 126.344C14.6212 126.198 13.7778 125.892 11.5156 125.697L11.5613 125.168C15.3945 125.499 15.3945 126.111 15.3945 126.341C15.3945 127.631 8.48512 127.668 7.69727 127.668Z"
    fill="#E15C3B" />
  <path
    d="M7.69727 142.532C6.90943 142.532 0 142.495 0 141.205C0 139.915 6.90943 139.878 7.69727 139.878V140.409C3.6277 140.409 0.988919 140.865 0.563958 141.205C0.988919 141.546 3.6277 142.002 7.69727 142.002C11.7578 142.002 14.3938 141.548 14.8277 141.208C14.6212 141.062 13.7778 140.756 11.5156 140.561L11.5613 140.032C15.3945 140.363 15.3945 140.975 15.3945 141.205C15.3945 142.495 8.48512 142.532 7.69727 142.532Z"
    fill="#E15C3B" />
  <path
    d="M7.69727 157.396C6.90943 157.396 0 157.359 0 156.069C0 154.779 6.90943 154.742 7.69727 154.742V155.273C3.6277 155.273 0.988919 155.728 0.563958 156.069C0.988919 156.41 3.6277 156.865 7.69727 156.865C11.7578 156.865 14.3938 156.411 14.8277 156.071C14.6212 155.925 13.7778 155.62 11.5156 155.424L11.5613 154.895C15.3945 155.227 15.3945 155.839 15.3945 156.069C15.3945 157.359 8.48512 157.396 7.69727 157.396Z"
    fill="#E15C3B" />
  <path
    d="M101.259 62.5071H42.8658C42.4084 62.5066 41.9699 62.3247 41.6465 62.0012C41.323 61.6778 41.1411 61.2393 41.1406 60.7819V37.9555C41.1411 37.4981 41.323 37.0596 41.6465 36.7361C41.9699 36.4127 42.4084 36.2307 42.8658 36.2302H101.259C101.716 36.2307 102.155 36.4127 102.478 36.7361C102.802 37.0596 102.984 37.4981 102.984 37.9555V60.7819C102.984 61.2393 102.802 61.6778 102.478 62.0012C102.155 62.3247 101.716 62.5066 101.259 62.5071Z"
    fill="#FBFDFF" />
  <path
    d="M79.4942 44.0602H64.6305C64.2786 44.0602 63.941 43.9204 63.6921 43.6715C63.4432 43.4226 63.3034 43.0851 63.3034 42.7331C63.3034 42.3811 63.4432 42.0436 63.6921 41.7947C63.941 41.5458 64.2786 41.406 64.6305 41.406H79.4942C79.8462 41.406 80.1838 41.5458 80.4326 41.7947C80.6815 42.0436 80.8213 42.3811 80.8213 42.7331C80.8213 43.0851 80.6815 43.4226 80.4326 43.6715C80.1838 43.9204 79.8462 44.0602 79.4942 44.0602H79.4942Z"
    fill="#3DCFE2" />
  <path
    d="M87.7224 50.6957H56.4024C56.0505 50.6957 55.7129 50.5559 55.464 50.307C55.2151 50.0582 55.0753 49.7206 55.0753 49.3686C55.0753 49.0167 55.2151 48.6791 55.464 48.4302C55.7129 48.1813 56.0505 48.0415 56.4024 48.0415H87.7224C88.0743 48.0415 88.4119 48.1813 88.6608 48.4302C88.9097 48.6791 89.0495 49.0167 89.0495 49.3686C89.0495 49.7206 88.9097 50.0582 88.6608 50.307C88.4119 50.5559 88.0743 50.6957 87.7224 50.6957Z"
    fill="#3DCFE2" />
  <path
    d="M87.7224 57.3315H56.4024C56.0505 57.3315 55.7129 57.1916 55.464 56.9428C55.2151 56.6939 55.0753 56.3563 55.0753 56.0044C55.0753 55.6524 55.2151 55.3148 55.464 55.0659C55.7129 54.8171 56.0505 54.6772 56.4024 54.6772H87.7224C88.0743 54.6772 88.4119 54.8171 88.6608 55.0659C88.9097 55.3148 89.0495 55.6524 89.0495 56.0044C89.0495 56.3563 88.9097 56.6939 88.6608 56.9428C88.4119 57.1916 88.0743 57.3315 87.7224 57.3315Z"
    fill="#3DCFE2" />
</svg>
